<svg id="Ebene_1" xmlns="http://www.w3.org/2000/svg" xmlns:xlink="http://www.w3.org/1999/xlink" viewBox="0 0 299.8 480"><style>.st0{fill:none;stroke:#fff;stroke-width:4;stroke-linecap:round;stroke-miterlimit:10}.st1{fill:#eaeaea}.st2{fill:#4d4d4d}</style><g id="Ebene_1_00000098194446764171649510000016161047194595728054_"><image width="33" height="35" xlink:href="CF0FAF817B616C65.png" transform="translate(140.273 295.248) scale(.9859)" overflow="visible" opacity=".25"/><path class="st0" d="M157.9-.4c0 110.7-.4 221.8-.4 332.5"/><path class="st1" d="M294 424.2c0-36-29.1-65.1-65.1-65.2-4.8 0-9.6.5-14.3 1.6-5.5-29.8-29.8-52.3-58.9-52.3-22.2 0-41.6 13.1-52 32.6-26-21.3-64.3-17.4-85.6 8.6C9.2 360.4 4.4 374 4.4 388.1c0 28.1 18.8 58.7 44.9 58.7h19.3c8.8 20.1 32.3 29.3 52.5 20.4 9.1-4 16.3-11.2 20.3-20.2l37.7.1c12.2 14.3 33.7 16 47.9 3.8 1.3-1.1 2.5-2.3 3.6-3.6l44.5.2c11.7-.1 18.9-13.1 18.9-23.3z"/><circle class="st2" cx="157.9" cy="319.1" r="5"/><image width="33" height="36" xlink:href="CF074474C153181F.png" transform="matrix(.9711 0 0 .9414 141.055 299.148)" overflow="visible" opacity=".25"/><path class="st0" d="M161.3 307.4c-11.2-4.5-11.8 5.5-4 10.7"/></g></svg>