<?xml version="1.0" encoding="utf-8"?>
<!-- Generator: Adobe Illustrator 25.4.1, SVG Export Plug-In . SVG Version: 6.00 Build 0)  -->
<svg version="1.1" id="Ebene_1" xmlns="http://www.w3.org/2000/svg" xmlns:xlink="http://www.w3.org/1999/xlink" x="0px" y="0px"
	 viewBox="0 0 299.8 480" style="enable-background:new 0 0 299.8 480;" xml:space="preserve">
<style type="text/css">
	.st0{fill:none;stroke:#FFFFFF;stroke-width:4;stroke-linecap:round;stroke-miterlimit:10;}
	.st1{fill:#EAEAEA;}
	.st2{fill:#4D4D4D;}
</style>
<g>
	<g id="Ebene_1_00000098194446764171649510000016161047194595728054_">
		
			<image style="overflow:visible;opacity:0.25;enable-background:new    ;" width="33" height="35" xlink:href="CF0FAF817B616C65.png"  transform="matrix(0.9859 0 0 0.9859 140.2734 295.2475)">
		</image>
		<path class="st0" d="M157.9-0.4c0,110.7-0.4,221.8-0.4,332.5"/>
		<path class="st1" d="M294,424.2c0-36-29.1-65.1-65.1-65.2c-4.8,0-9.6,0.5-14.3,1.6c-5.5-29.8-29.8-52.3-58.9-52.3
			c-22.2,0-41.6,13.1-52,32.6c-26-21.3-64.3-17.4-85.6,8.6C9.2,360.4,4.4,374,4.4,388.1c0,28.1,18.8,58.7,44.9,58.7h19.3
			c8.8,20.1,32.3,29.3,52.5,20.4c9.1-4,16.3-11.2,20.3-20.2l37.7,0.1c12.2,14.3,33.7,16,47.9,3.8c1.3-1.1,2.5-2.3,3.6-3.6l44.5,0.2
			C286.8,447.4,294,434.4,294,424.2z"/>
		<circle class="st2" cx="157.9" cy="319.1" r="5"/>
		
			<image style="overflow:visible;opacity:0.25;enable-background:new    ;" width="33" height="36" xlink:href="CF074474C153181F.png"  transform="matrix(0.9711 0 0 0.9414 141.0547 299.1478)">
		</image>
		<path class="st0" d="M161.3,307.4c-11.2-4.5-11.8,5.5-4,10.7"/>
	</g>
</g>
</svg>
