<?xml version="1.0" encoding="utf-8"?>
<!-- Generator: Adobe Illustrator 25.4.1, SVG Export Plug-In . SVG Version: 6.00 Build 0)  -->
<svg version="1.1" id="Ebene_1" xmlns="http://www.w3.org/2000/svg" xmlns:xlink="http://www.w3.org/1999/xlink" x="0px" y="0px"
	 viewBox="0 0 324.5 511.5" style="enable-background:new 0 0 324.5 511.5;" xml:space="preserve">
<style type="text/css">
	.st0{fill:none;stroke:#FFFFFF;stroke-width:4;stroke-linecap:round;stroke-miterlimit:10;}
	.st1{fill:#EAEAEA;}
	.st2{fill:#4D4D4D;}
</style>
<g>
	<g id="Ebene_1_00000057128115132329884060000002043233424545354680_">
		<path class="st0" d="M111.2-395v737"/>
		<path class="st1" d="M319.9,448.8c0,23.2-18.9,39.2-36.8,39.2H167c0,0-2.4,16-34.4,16c-24.7,0-35.8-16-35.8-16H43.9
			c-20.1,0-39.7-9-39.8-44.4C4,413,32.2,386.2,46.7,391c3.5,1.2-0.2-55.2,58.2-58c42.7-2,58.8,25,63.4,35.5c1,2.2,3.5,3.3,5.8,2.4
			c6.7-2.6,12.4-7.7,37.1-7.7c30.5,0,38,31.8,41.3,41.6c0.5,1.6,2.2,2.5,3.8,2c0.1,0,0.2-0.1,0.2-0.1
			C277.8,396.6,319.9,398,319.9,448.8z"/>
		<circle class="st2" cx="111.2" cy="343.5" r="5"/>
		
			<image style="overflow:visible;opacity:0.25;enable-background:new    ;" width="33" height="36" xlink:href="CF074474C153181F.png"  transform="matrix(0.9711 0 0 0.9711 94.1973 319.0208)">
		</image>
		<path class="st0" d="M114.7,331.8c-11.2-4.5-11.8,5.5-4,10.7"/>
	</g>
</g>
</svg>
