<?xml version="1.0" encoding="utf-8"?>
<!-- Generator: Adobe Illustrator 25.4.1, SVG Export Plug-In . SVG Version: 6.00 Build 0)  -->
<svg version="1.1" id="Ebene_1" xmlns="http://www.w3.org/2000/svg" xmlns:xlink="http://www.w3.org/1999/xlink" x="0px" y="0px"
	 viewBox="0 0 438 502.5" style="enable-background:new 0 0 438 502.5;" xml:space="preserve">
<style type="text/css">
	.st0{fill:#EAEAEA;}
	.st1{fill:none;stroke:#FFFFFF;stroke-width:4;stroke-linecap:round;stroke-miterlimit:10;}
	.st2{fill:#4D4D4D;}
</style>
<g>
	<g id="Ebene_1_00000041278978476521470940000015586502638001642686_">
		<path class="st0" d="M431.7,439.7c0-27.6-22.4-50-50-50c-7,0-13.9,1.5-20.3,4.3c-15.8-28.7-50.6-40.9-80.9-28.5
			c-24.5-41.3-77.9-54.8-119.1-30.3c-22.3,13.3-37.6,35.9-41.5,61.6c-0.4-0.2-0.8-0.4-1.2-0.5c-23.8-10-51.1,1.2-61.1,24.9
			c0,0,0,0,0,0c-1.4,3.3-2.4,6.8-3,10.4c-14.4-10.1-34.3-6.6-44.4,7.8c-10.1,14.4-6.6,34.3,7.8,44.4c5.4,3.8,11.8,5.8,18.3,5.8H171
			c22.2,9.6,47.3,9.6,69.5,0h142l0,0C409.8,489.2,431.7,467,431.7,439.7z"/>
		<path class="st1" d="M201.7-2.7V336"/>
		<circle class="st2" cx="201.7" cy="337.1" r="5"/>
		
			<image style="overflow:visible;opacity:0.25;enable-background:new    ;" width="32" height="35" xlink:href="CEFED9680744C3D4.png"  transform="matrix(1 0 0 1 185.31 313)">
		</image>
		<path class="st1" d="M196.9,325.4c11.2-4.5,11.8,5.5,4,10.7"/>
	</g>
</g>
</svg>
