<svg id="Ebene_1" xmlns="http://www.w3.org/2000/svg" xmlns:xlink="http://www.w3.org/1999/xlink" viewBox="0 0 438 502.5"><style>.st0{fill:#eaeaea}.st1{fill:none;stroke:#fff;stroke-width:4;stroke-linecap:round;stroke-miterlimit:10}.st2{fill:#4d4d4d}</style><g id="Ebene_1_00000041278978476521470940000015586502638001642686_"><path class="st0" d="M431.7 439.7c0-27.6-22.4-50-50-50-7 0-13.9 1.5-20.3 4.3-15.8-28.7-50.6-40.9-80.9-28.5-24.5-41.3-77.9-54.8-119.1-30.3-22.3 13.3-37.6 35.9-41.5 61.6-.4-.2-.8-.4-1.2-.5-23.8-10-51.1 1.2-61.1 24.9-1.4 3.3-2.4 6.8-3 10.4-14.4-10.1-34.3-6.6-44.4 7.8-10.1 14.4-6.6 34.3 7.8 44.4 5.4 3.8 11.8 5.8 18.3 5.8H171c22.2 9.6 47.3 9.6 69.5 0h142c27.3-.4 49.2-22.6 49.2-49.9z"/><path class="st1" d="M201.7-2.7V336"/><circle class="st2" cx="201.7" cy="337.1" r="5"/><image width="32" height="35" xlink:href="CEFED9680744C3D4.png" transform="translate(185.31 313)" overflow="visible" opacity=".25"/><path class="st1" d="M196.9 325.4c11.2-4.5 11.8 5.5 4 10.7"/></g></svg>